<svg id="emrxcO73jtR1" xmlns="http://www.w3.org/2000/svg" xmlns:xlink="http://www.w3.org/1999/xlink" viewBox="0 0 500 500" shape-rendering="geometricPrecision" text-rendering="geometricPrecision" project-id="fefc1866cd274948aa72f2ce09e00570" export-id="49965036851246b6999026c8caea8c5e" cached="false" width="500" height="500"><g transform="translate(.000001 0)"><line x1="-40.533296" y1="21.020614" x2="40.533297" y2="-21.020614" transform="translate(114.181008 95.928165)" fill="none" stroke="#3f5787" stroke-linecap="round"/><line x1="-40.533296" y1="21.020614" x2="40.533297" y2="-21.020614" transform="matrix(.999992 0 0-4.553039 114.180684 212.656454)" fill="none" stroke="#3f5787" stroke-linecap="round"/><line x1="-40.533296" y1="21.020614" x2="40.533297" y2="-21.020614" transform="matrix(1.000001 0 0-1.776519 114.181049 154.292299)" fill="none" stroke="#3f5787" stroke-linecap="round"/><line x1="-40.533296" y1="21.020614" x2="40.533297" y2="-21.020614" transform="matrix(.999992 0 0-7.329559 114.180684 271.02061)" fill="none" stroke="#3f5787" stroke-linecap="round"/></g><g transform="translate(.000016 126.658624)"><line x1="-40.533312" y1="26.19176" x2="40.533297" y2="-21.020614" transform="matrix(1 0 0 1.236205 114.181008 90.962991)" fill="none" stroke="#3f5787" stroke-linecap="round"/><line x1="-40.533312" y1="19.539761" x2="40.533297" y2="-21.020614" transform="matrix(.999992 0 0-4.316835 114.180684 207.691301)" fill="none" stroke="#3f5787" stroke-linecap="round"/><line x1="-40.533295" y1="16.870426" x2="40.533297" y2="-21.020614" transform="matrix(1.000001 0 0-1.540315 114.181049 149.327146)" fill="none" stroke="#3f5787" stroke-linecap="round"/><line x1="-40.533295" y1="22.613696" x2="40.533297" y2="-21.020614" transform="matrix(.999992 0 0 4.012724 114.180684 32.598857)" fill="none" stroke="#3f5787" stroke-linecap="round"/></g><g transform="translate(.000016 253.317235)"><line x1="-40.533295" y1="26.191772" x2="40.532633" y2="-29.053513" transform="matrix(1 0 0 1.236205 114.181008 90.962991)" fill="none" stroke="#3f5787" stroke-linecap="round"/><line x1="-40.533295" y1="19.539758" x2="40.533283" y2="89.440753" transform="matrix(.999992 0 0-4.316835 114.180684 207.691301)" fill="none" stroke="#3f5787" stroke-linecap="round"/><line x1="-40.533295" y1="16.870417" x2="40.5332" y2="-14.573672" transform="matrix(1.000001 0 0-1.540315 114.181049 149.327146)" fill="none" stroke="#3f5787" stroke-linecap="round"/><line x1="-40.533295" y1="22.525137" x2="40.533297" y2="-21.020614" transform="matrix(.999992 0 0 4.248929 114.180684 27.633683)" fill="none" stroke="#3f5787" stroke-linecap="round"/></g><g transform="translate(135.402332 311.681359)"><line x1="-40.533263" y1="18.158861" x2="40.533287" y2="-76.265839" transform="matrix(1 0 0 1.236205 114.181008 90.962991)" fill="none" stroke="#3f5787" stroke-linecap="round"/><line x1="-40.533263" y1="21.840129" x2="40.533282" y2="102.960875" transform="matrix(.999992 0 0-4.316835 114.180684 207.691301)" fill="none" stroke="#3f5787" stroke-linecap="round"/><line x1="-40.533263" y1="23.31736" x2="40.532552" y2="23.317347" transform="matrix(1.000001 0 0-1.540315 114.181049 149.327146)" fill="none" stroke="#3f5787" stroke-linecap="round"/><line x1="-40.533263" y1="20.188001" x2="40.533936" y2="-34.756809" transform="matrix(.999992 0 0 4.248929 114.180684 27.633683)" fill="none" stroke="#3f5787" stroke-linecap="round"/></g><g transform="translate(135.818982 194.953036)"><line x1="-40.533263" y1="18.158861" x2="40.533287" y2="-76.265839" transform="matrix(1 0 0 1.236205 114.181008 90.962991)" fill="none" stroke="#3f5787" stroke-linecap="round"/><line x1="-40.533263" y1="21.840129" x2="40.533934" y2="-5.200127" transform="matrix(.999992 0 0-4.316835 114.180684 207.691301)" fill="none" stroke="#3f5787" stroke-linecap="round"/><line x1="-40.533263" y1="23.31736" x2="40.532552" y2="23.317347" transform="matrix(1.000001 0 0-1.540315 114.181049 149.327146)" fill="none" stroke="#3f5787" stroke-linecap="round"/><line x1="-40.533263" y1="20.188001" x2="40.533936" y2="-34.756809" transform="matrix(.999992 0 0 4.248929 114.180684 27.633683)" fill="none" stroke="#3f5787" stroke-linecap="round"/></g><g transform="translate(135.401679 78.224697)"><line x1="-40.533263" y1="18.158861" x2="40.533287" y2="-76.265839" transform="matrix(1 0 0 1.236205 114.181008 90.962991)" fill="none" stroke="#3f5787" stroke-linecap="round"/><line x1="-40.533263" y1="21.840129" x2="40.533934" y2="-5.200127" transform="matrix(.999992 0 0-4.316835 114.180684 207.691301)" fill="none" stroke="#3f5787" stroke-linecap="round"/><line x1="-40.533263" y1="23.31736" x2="40.532552" y2="23.317347" transform="matrix(1.000001 0 0-1.540315 114.181049 149.327146)" fill="none" stroke="#3f5787" stroke-linecap="round"/><line x1="-40.533263" y1="20.188001" x2="40.533281" y2="75.13283" transform="matrix(.999992 0 0 4.248929 114.180684 27.633683)" fill="none" stroke="#3f5787" stroke-linecap="round"/></g><g transform="translate(135.401025-38.503659)"><line x1="-40.533263" y1="18.158861" x2="40.951244" y2="301.433109" transform="matrix(1 0 0 1.236205 114.181008 90.962991)" fill="none" stroke="#3f5787" stroke-linecap="round"/><line x1="-40.533263" y1="21.840129" x2="40.533934" y2="-5.200127" transform="matrix(.999992 0 0-4.316835 114.180684 207.691301)" fill="none" stroke="#3f5787" stroke-linecap="round"/><line x1="-40.533263" y1="23.31736" x2="40.532552" y2="23.317347" transform="matrix(1.000001 0 0-1.540315 114.181049 149.327146)" fill="none" stroke="#3f5787" stroke-linecap="round"/><line x1="-40.533263" y1="20.188001" x2="40.533281" y2="75.13283" transform="matrix(.999992 0 0 4.248929 114.180684 27.633683)" fill="none" stroke="#3f5787" stroke-linecap="round"/></g><g transform="translate(351.871193 136.588846)"><line x1="-40.533263" y1="18.158861" x2="-121.599803" y2="159.795997" transform="matrix(1 0 0 1.236205 114.181008 90.962991)" fill="none" stroke="#3f5787" stroke-linecap="round"/><line x1="-40.533263" y1="21.840129" x2="-121.600451" y2="35.360264" transform="matrix(.999992 0 0-4.316835 114.180684 207.691301)" fill="none" stroke="#3f5787" stroke-linecap="round"/><line x1="-40.533263" y1="23.31736" x2="-121.599721" y2="136.990439" transform="matrix(1.000001 0 0-1.540315 114.181049 149.327146)" fill="none" stroke="#3f5787" stroke-linecap="round"/><line x1="-40.533263" y1="20.188001" x2="-121.600451" y2="33.924221" transform="matrix(.999992 0 0 4.248929 114.180684 27.633683)" fill="none" stroke="#3f5787" stroke-linecap="round"/></g><g transform="translate(-29.978375-.749466)"><ellipse rx="27.167886" ry="27.167886" transform="translate(76.458201 250.74946)" fill="#ffeca9" stroke="#000" stroke-width="2"/><ellipse rx="27.167886" ry="27.167886" transform="translate(76.458201 377.40809)" fill="#ffeca9" stroke="#000" stroke-width="2"/><ellipse rx="27.167886" ry="27.167886" transform="translate(76.458218 124.09083)" fill="#ffeca9" stroke="#000" stroke-width="2"/></g><g transform="translate(-9.659976-6.651436)"><ellipse rx="27.167886" ry="27.167886" transform="translate(191.542166 198.287279)" fill="#c1e4f7" stroke="#000" stroke-width="2"/><ellipse rx="27.167886" ry="27.167886" transform="translate(191.542166 431.743863)" fill="#c1e4f7" stroke="#000" stroke-width="2"/><ellipse rx="27.167886" ry="27.167886" transform="translate(191.542167 315.015571)" fill="#c1e4f7" stroke="#000" stroke-width="2"/><ellipse rx="27.167886" ry="27.167886" transform="translate(191.542167 81.558987)" fill="#c1e4f7" stroke="#000" stroke-width="2"/></g><g transform="translate(125.742346-6.651436)"><ellipse rx="27.167886" ry="27.167886" transform="translate(191.542166 198.287279)" fill="#c7e8ac" stroke="#000" stroke-width="2"/><ellipse rx="27.167886" ry="27.167886" transform="translate(191.542166 431.743863)" fill="#c7e8ac" stroke="#000" stroke-width="2"/><ellipse rx="27.167886" ry="27.167886" transform="translate(191.542167 315.015571)" fill="#c7e8ac" stroke="#000" stroke-width="2"/><ellipse rx="27.167886" ry="27.167886" transform="translate(191.542167 81.558987)" fill="#c7e8ac" stroke="#000" stroke-width="2"/></g><ellipse rx="27.167886" ry="27.167886" transform="translate(452.686822 250.000001)" fill="#ffbbb1" stroke="#000" stroke-width="2"/></svg>
